<svg width="300" height="86" viewBox="0 0 300 86" fill="none" xmlns="http://www.w3.org/2000/svg">
<path d="M76.9363 25.7129V48.7513C76.9363 52.5978 72.8113 54.0324 70.2112 54.0324C67.6111 54.0324 63.4862 52.5994 63.4862 48.7513V25.7129H54.2676V48.7513C54.2676 53.0912 56.1565 56.9703 59.5861 59.6759C62.5018 61.9752 66.2753 63.2413 70.2112 63.2413C74.1471 63.2413 77.9207 61.9752 80.8363 59.6759C84.266 56.9703 86.1549 53.0912 86.1549 48.7513V25.7129H76.9363Z" fill="white"/>
<path d="M34.3086 25.7161H21.6195V13.2041V12.5469H20.9617H13.0602H12.4023V13.2041V47.86V48.5173H12.4398C12.7258 52.6854 14.6945 56.4303 18.0289 59.1201C21.1961 61.6756 25.4352 63.1416 29.657 63.1416C34.2303 63.1416 38.4617 61.7272 41.571 59.1576C45.0523 56.2805 46.971 52.1186 46.971 47.4353V38.3624C46.968 31.3892 41.2897 25.7161 34.3086 25.7161ZM37.7492 47.4369C37.7492 49.6177 36.8835 51.3037 35.1788 52.448C33.7493 53.4066 31.7883 53.9327 29.654 53.9327C27.5165 53.9327 25.4117 53.2318 23.8789 52.0094C22.3805 50.8153 21.6195 49.276 21.6195 47.4353V34.9233H34.3086C36.2055 34.9233 37.7492 36.4658 37.7492 38.3608V47.4369Z" fill="white"/>
<path d="M147.224 40.099C147.224 35.5546 145.766 31.705 143.006 28.97C140.249 26.2366 136.37 24.791 131.787 24.791C127.109 24.791 123.206 26.1039 120.453 28.5937C117.725 26.1039 114 24.791 109.634 24.791C104.791 24.791 100.769 26.1991 98.0061 28.8608C95.2375 31.5302 93.7734 35.4173 93.7734 40.1006V62.1913H102.992V40.1022C102.992 37.9182 103.488 36.3508 104.465 35.4422C105.747 34.2527 107.983 34.003 109.633 34.003C111.786 34.003 113.326 34.4885 114.344 35.4891C115.358 36.4867 115.85 38.0009 115.85 40.1177L115.927 62.1945H125.145V40.1022C125.145 37.9182 125.641 36.3508 126.619 35.4422C127.9 34.2527 130.136 34.003 131.786 34.003C133.939 34.003 135.48 34.4885 136.497 35.4891C137.511 36.4867 138.003 38.0009 138.003 40.1177L138.083 62.1961L147.234 62.1929L147.224 40.099Z" fill="white"/>
<path d="M285.48 27.6852C282.649 25.787 278.875 24.7832 274.565 24.7832C269.867 24.7832 266.042 25.7651 263.195 27.7023C259.52 30.2048 257.656 33.8952 257.656 38.6721L257.689 47.6671C257.692 48.6584 257.772 49.6512 257.975 50.6221C258.674 53.963 260.306 57.135 263.084 59.3768C266.253 61.9323 269.714 63.2998 274.667 63.2933C279.239 63.2888 284.543 61.8667 287.653 59.2971L281.993 53.0716C280.565 54.0299 277.043 54.5686 274.911 54.5686C267.412 54.5686 267.186 49.4122 266.955 48.0105H267.161H286.118C288.662 48.0105 290.728 45.9482 290.728 43.4054V38.6705C290.728 33.931 289.284 30.2345 285.48 27.6852ZM281.993 41.201H266.875V37.8088C266.875 36.9519 266.875 35.7778 267.75 34.8053C268.87 33.5596 271.163 32.9288 274.565 32.9288C277.005 32.9288 279.057 33.4049 280.343 34.2682C281.16 34.8147 281.993 35.6638 281.993 37.8104V41.201Z" fill="white"/>
<path d="M250.354 40.0951C250.354 35.5508 248.897 31.7011 246.137 28.9661C243.379 26.2327 239.501 24.7871 234.919 24.7871C230.24 24.7871 226.337 26.1 223.584 28.5899C220.856 26.1 217.131 24.7871 212.765 24.7871C207.922 24.7871 203.9 26.1952 201.137 28.857C198.368 31.5264 196.904 35.4135 196.904 40.0967V62.1874H206.123V40.0967C206.123 37.9127 206.618 36.3453 207.597 35.4368C208.878 34.2472 211.114 33.9975 212.764 33.9975C214.917 33.9975 216.458 34.483 217.475 35.4836C218.489 36.4813 218.981 37.9954 218.981 40.1122L219.057 62.189H228.276V40.0967C228.276 37.9127 228.772 36.3453 229.75 35.4368C231.031 34.2472 233.267 33.9975 234.917 33.9975C237.07 33.9975 238.612 34.483 239.628 35.4836C240.642 36.4813 241.134 37.9954 241.134 40.1122L241.214 62.1906L250.365 62.1874L250.354 40.0951Z" fill="white"/>
<path d="M180.256 25.712V28.8124H179.1C179.1 28.8124 177.749 24.791 170.185 24.791C166.247 24.791 162.961 25.8135 160.045 28.1131C156.614 30.8184 154.727 34.9426 154.727 39.2809V48.7552C154.727 53.0935 156.614 57.2177 160.045 59.923C162.961 62.2226 166.245 63.2451 170.185 63.2451C177.749 63.2451 179.1 59.3222 179.1 59.3222H180.256V62.1913H189.474V25.712H180.256ZM179.86 49.3844C179.86 53.2308 174.961 54.6638 172.027 54.6638C169.095 54.6638 163.944 53.2308 163.944 49.3844V38.4505C163.944 34.6041 169.094 33.171 172.027 33.171C174.961 33.171 179.86 34.6041 179.86 38.4505V49.3844Z" fill="white"/>
</svg>
