<svg width="125" height="35" viewBox="0 0 125 35" fill="none" xmlns="http://www.w3.org/2000/svg">
<path d="M32.0566 10.6758V20.2412C32.0566 21.8382 30.3379 22.4338 29.2545 22.4338C28.1712 22.4338 26.4524 21.8388 26.4524 20.2412V10.6758H22.6113V20.2412C22.6113 22.043 23.3984 23.6537 24.8274 24.7769C26.0423 25.7316 27.6145 26.2573 29.2545 26.2573C30.8945 26.2573 32.4668 25.7316 33.6816 24.7769C35.1106 23.6537 35.8977 22.043 35.8977 20.2412V10.6758H32.0566Z" fill="#F77712"/>
<path d="M14.2956 10.6768H9.00847V5.48185V5.20898H8.73441H5.44205H5.16797V5.48185V19.8707V20.1436H5.18359C5.30273 21.8742 6.12305 23.429 7.51237 24.5459C8.83206 25.6068 10.5983 26.2154 12.3575 26.2154C14.263 26.2154 16.026 25.6282 17.3216 24.5614C18.7721 23.3668 19.5716 21.6389 19.5716 19.6945V15.9274C19.5703 13.0321 17.2044 10.6768 14.2956 10.6768ZM15.7292 19.6951C15.7292 20.6006 15.3685 21.3006 14.6582 21.7756C14.0625 22.1736 13.2454 22.392 12.3561 22.392C11.4655 22.392 10.5885 22.101 9.94987 21.5935C9.3255 21.0977 9.00847 20.4586 9.00847 19.6945V14.4995H14.2956C15.086 14.4995 15.7292 15.1399 15.7292 15.9268V19.6951Z" fill="#F77712"/>
<path d="M61.3431 16.6487C61.3431 14.7619 60.7357 13.1636 59.5859 12.028C58.4369 10.8932 56.8209 10.293 54.9115 10.293C52.9623 10.293 51.3359 10.838 50.1888 11.8719C49.0521 10.838 47.5 10.293 45.681 10.293C43.6627 10.293 41.987 10.8776 40.8359 11.9827C39.6823 13.091 39.0723 14.7049 39.0723 16.6494V25.8213H42.9134V16.65C42.9134 15.7432 43.1198 15.0925 43.5273 14.7153C44.0612 14.2214 44.9928 14.1177 45.6803 14.1177C46.5775 14.1177 47.2194 14.3193 47.6432 14.7347C48.0658 15.1489 48.2709 15.7776 48.2709 16.6565L48.3027 25.8226H52.1439V16.65C52.1439 15.7432 52.3502 15.0925 52.7578 14.7153C53.2916 14.2214 54.2233 14.1177 54.9108 14.1177C55.808 14.1177 56.4498 14.3193 56.8737 14.7347C57.2963 15.1489 57.5013 15.7776 57.5013 16.6565L57.5345 25.8232L61.3477 25.8219L61.3431 16.6487Z" fill="#F77712"/>
<path d="M118.951 11.494C117.771 10.7059 116.199 10.2891 114.403 10.2891C112.445 10.2891 110.851 10.6968 109.665 11.5012C108.134 12.5401 107.357 14.0723 107.357 16.0557L107.371 19.7903C107.372 20.2018 107.406 20.6141 107.49 21.0173C107.781 22.4043 108.461 23.7213 109.619 24.6521C110.939 25.7131 112.382 26.2809 114.445 26.2782C116.35 26.2763 118.561 25.6859 119.856 24.619L117.498 22.0342C116.902 22.4321 115.435 22.6557 114.546 22.6557C111.422 22.6557 111.328 20.5149 111.232 19.9329H111.318H119.216C120.277 19.9329 121.136 19.0767 121.136 18.0209V16.055C121.136 14.0873 120.536 12.5524 118.951 11.494ZM117.498 17.1057H111.199V15.6973C111.199 15.3414 111.199 14.854 111.563 14.4502C112.03 13.933 112.986 13.6712 114.403 13.6712C115.419 13.6712 116.274 13.8688 116.811 14.2273C117.15 14.4541 117.498 14.8067 117.498 15.6979V17.1057Z" fill="#F77712"/>
<path d="M104.313 16.6468C104.313 14.76 103.706 13.1616 102.556 12.0261C101.407 10.8912 99.7914 10.291 97.882 10.291C95.9328 10.291 94.3063 10.8361 93.1594 11.8699C92.0227 10.8361 90.4703 10.291 88.6516 10.291C86.6328 10.291 84.957 10.8757 83.8063 11.9807C82.6523 13.0891 82.043 14.703 82.043 16.6474V25.8193H85.8836V16.6474C85.8836 15.7407 86.0898 15.0899 86.4977 14.7127C87.0313 14.2188 87.9633 14.1151 88.6508 14.1151C89.5477 14.1151 90.1898 14.3166 90.6133 14.7321C91.0359 15.1463 91.2414 15.775 91.2414 16.6539L91.2734 25.82H95.1141V16.6474C95.1141 15.7407 95.3203 15.0899 95.7281 14.7127C96.2617 14.2188 97.1938 14.1151 97.8813 14.1151C98.7781 14.1151 99.4211 14.3166 99.8438 14.7321C100.266 15.1463 100.472 15.775 100.472 16.6539L100.505 25.8207L104.318 25.8193L104.313 16.6468Z" fill="#F77712"/>
<path d="M75.1061 10.6754V11.9626H74.6244C74.6244 11.9626 74.0612 10.293 70.9095 10.293C69.2689 10.293 67.8998 10.7175 66.6849 11.6722C65.2552 12.7955 64.4688 14.5079 64.4688 16.3091V20.2427C64.4688 22.0439 65.2552 23.7563 66.6849 24.8796C67.8998 25.8343 69.2682 26.2588 70.9095 26.2588C74.0612 26.2588 74.6244 24.63 74.6244 24.63H75.1061V25.8213H78.9465V10.6754H75.1061ZM74.9408 20.5039C74.9408 22.101 72.8998 22.696 71.6771 22.696C70.4557 22.696 68.3092 22.101 68.3092 20.5039V15.9643C68.3092 14.3672 70.4551 13.7722 71.6771 13.7722C72.8998 13.7722 74.9408 14.3672 74.9408 15.9643V20.5039Z" fill="#F77712"/>
</svg>
