<svg width="15" height="22" viewBox="0 0 15 22" fill="none" xmlns="http://www.w3.org/2000/svg">
<path d="M9.29558 5.67675H4.00847V0.481852V0.208984H3.73441H0.442054H0.167969V0.481852V14.8707V15.1436H0.183594C0.302734 16.8742 1.12305 18.429 2.51237 19.5459C3.83206 20.6068 5.59831 21.2154 7.35745 21.2154C9.263 21.2154 11.026 20.6282 12.3216 19.5614C13.7721 18.3668 14.5716 16.6389 14.5716 14.6945V10.9274C14.5703 8.0321 12.2044 5.67675 9.29558 5.67675ZM10.7292 14.6951C10.7292 15.6006 10.3685 16.3006 9.65824 16.7756C9.06253 17.1736 8.24542 17.392 7.35612 17.392C6.4655 17.392 5.58855 17.101 4.94987 16.5935C4.3255 16.0977 4.00847 15.4586 4.00847 14.6945V9.49953H9.29558C10.086 9.49953 10.7292 10.1399 10.7292 10.9268V14.6951Z" fill="#F77712"/>
</svg>
