<svg width="80" height="80" viewBox="0 0 80 80" fill="none" xmlns="http://www.w3.org/2000/svg">
<path d="M54.6094 27.5781H50.9453C50.1484 27.5781 49.3906 27.9609 48.9219 28.6172L36.6406 45.6484L31.0781 37.9297C30.6094 37.2813 29.8594 36.8906 29.0547 36.8906H25.3906C24.8828 36.8906 24.586 37.4688 24.8828 37.8828L34.6172 51.3828C34.8472 51.7038 35.1503 51.9653 35.5015 52.1457C35.8527 52.3261 36.2419 52.4203 36.6367 52.4203C37.0316 52.4203 37.4207 52.3261 37.7719 52.1457C38.1232 51.9653 38.4263 51.7038 38.6563 51.3828L55.1094 28.5703C55.4141 28.1563 55.1172 27.5781 54.6094 27.5781Z" fill="#49D478"/>
<path d="M40 5C20.6719 5 5 20.6719 5 40C5 59.3281 20.6719 75 40 75C59.3281 75 75 59.3281 75 40C75 20.6719 59.3281 5 40 5ZM40 69.0625C23.9531 69.0625 10.9375 56.0469 10.9375 40C10.9375 23.9531 23.9531 10.9375 40 10.9375C56.0469 10.9375 69.0625 23.9531 69.0625 40C69.0625 56.0469 56.0469 69.0625 40 69.0625Z" fill="#49D478"/>
</svg>
