<svg width="10" height="5" viewBox="0 0 10 5" fill="none" xmlns="http://www.w3.org/2000/svg">
<path d="M1.02284 0.307992C1.14004 0.190822 1.29898 0.125 1.46471 0.125C1.63044 0.125 1.78938 0.190822 1.90659 0.307992L5.00034 3.40174L8.09409 0.307992C8.21196 0.194143 8.36984 0.131146 8.53371 0.13257C8.69758 0.133994 8.85434 0.199725 8.97022 0.315605C9.0861 0.431485 9.15183 0.588243 9.15326 0.752116C9.15468 0.915989 9.09168 1.07386 8.97783 1.19174L5.44221 4.72737C5.32501 4.84454 5.16606 4.91036 5.00034 4.91036C4.83461 4.91036 4.67567 4.84454 4.55846 4.72737L1.02284 1.19174C0.905666 1.07454 0.839844 0.915594 0.839844 0.749866C0.839844 0.584139 0.905666 0.425196 1.02284 0.307992Z" fill="#575962"/>
</svg>
