<svg width="38" height="38" viewBox="0 0 38 38" fill="none" xmlns="http://www.w3.org/2000/svg">
<g filter="url(#filter0_d_133_3848)">
<rect x="6" y="4" width="26" height="26" rx="5" fill="#349EFF"/>
<path d="M24.875 18.2083V23.1667C24.875 23.3545 24.8004 23.5347 24.6675 23.6675C24.5347 23.8004 24.3545 23.875 24.1667 23.875H12.8333C12.6455 23.875 12.4653 23.8004 12.3325 23.6675C12.1996 23.5347 12.125 23.3545 12.125 23.1667V11.8333C12.125 11.6455 12.1996 11.4653 12.3325 11.3325C12.4653 11.1996 12.6455 11.125 12.8333 11.125H17.7917" stroke="white" stroke-width="1.41667" stroke-linecap="round" stroke-linejoin="round"/>
<path d="M15.959 17.4633V20.0417H18.5504L25.8757 12.7132L23.2885 10.125L15.959 17.4633Z" stroke="white" stroke-width="1.41667" stroke-linejoin="round"/>
</g>
<defs>
<filter id="filter0_d_133_3848" x="0" y="0" width="38" height="38" filterUnits="userSpaceOnUse" color-interpolation-filters="sRGB">
<feFlood flood-opacity="0" result="BackgroundImageFix"/>
<feColorMatrix in="SourceAlpha" type="matrix" values="0 0 0 0 0 0 0 0 0 0 0 0 0 0 0 0 0 0 127 0" result="hardAlpha"/>
<feOffset dy="2"/>
<feGaussianBlur stdDeviation="3"/>
<feComposite in2="hardAlpha" operator="out"/>
<feColorMatrix type="matrix" values="0 0 0 0 0.454902 0 0 0 0 0.454902 0 0 0 0 0.454902 0 0 0 0.2 0"/>
<feBlend mode="normal" in2="BackgroundImageFix" result="effect1_dropShadow_133_3848"/>
<feBlend mode="normal" in="SourceGraphic" in2="effect1_dropShadow_133_3848" result="shape"/>
</filter>
</defs>
</svg>
