<svg width="38" height="38" viewBox="0 0 38 38" fill="none" xmlns="http://www.w3.org/2000/svg">
<g filter="url(#filter0_d_133_3849)">
<rect x="6" y="4" width="26" height="26" rx="5" fill="#1BC5BD"/>
<path d="M19 21.5C23.1422 21.5 26.5 17 26.5 17C26.5 17 23.1422 12.5 19 12.5C14.8578 12.5 11.5 17 11.5 17C11.5 17 14.8578 21.5 19 21.5Z" stroke="white" stroke-width="1.5" stroke-linejoin="round"/>
<path d="M19 18.875C19.4973 18.875 19.9742 18.6775 20.3258 18.3258C20.6775 17.9742 20.875 17.4973 20.875 17C20.875 16.5027 20.6775 16.0258 20.3258 15.6742C19.9742 15.3225 19.4973 15.125 19 15.125C18.5027 15.125 18.0258 15.3225 17.6742 15.6742C17.3225 16.0258 17.125 16.5027 17.125 17C17.125 17.4973 17.3225 17.9742 17.6742 18.3258C18.0258 18.6775 18.5027 18.875 19 18.875Z" stroke="white" stroke-width="1.5" stroke-linejoin="round"/>
</g>
<defs>
<filter id="filter0_d_133_3849" x="0" y="0" width="38" height="38" filterUnits="userSpaceOnUse" color-interpolation-filters="sRGB">
<feFlood flood-opacity="0" result="BackgroundImageFix"/>
<feColorMatrix in="SourceAlpha" type="matrix" values="0 0 0 0 0 0 0 0 0 0 0 0 0 0 0 0 0 0 127 0" result="hardAlpha"/>
<feOffset dy="2"/>
<feGaussianBlur stdDeviation="3"/>
<feComposite in2="hardAlpha" operator="out"/>
<feColorMatrix type="matrix" values="0 0 0 0 0.454902 0 0 0 0 0.454902 0 0 0 0 0.454902 0 0 0 0.2 0"/>
<feBlend mode="normal" in2="BackgroundImageFix" result="effect1_dropShadow_133_3849"/>
<feBlend mode="normal" in="SourceGraphic" in2="effect1_dropShadow_133_3849" result="shape"/>
</filter>
</defs>
</svg>
