<svg width="10" height="11" viewBox="0 0 10 11" fill="none" xmlns="http://www.w3.org/2000/svg">
<g clip-path="url(#clip0_13_349)">
<path d="M6.69201 2.01893C6.80918 2.13613 6.875 2.29508 6.875 2.4608C6.875 2.62653 6.80918 2.78547 6.69201 2.90268L3.59826 5.99643L6.69201 9.09018C6.80586 9.20805 6.86885 9.36593 6.86743 9.5298C6.86601 9.69368 6.80028 9.85044 6.6844 9.96632C6.56852 10.0822 6.41176 10.1479 6.24788 10.1493C6.08401 10.1508 5.92614 10.0878 5.80826 9.97393L2.27263 6.4383C2.15546 6.3211 2.08964 6.16216 2.08964 5.99643C2.08964 5.8307 2.15546 5.67176 2.27263 5.55455L5.80826 2.01893C5.92546 1.90176 6.08441 1.83594 6.25013 1.83594C6.41586 1.83594 6.5748 1.90176 6.69201 2.01893Z" fill="#575962"/>
</g>
<defs>
<clipPath id="clip0_13_349">
<rect width="10" height="10" fill="white" transform="translate(10 0.996094) rotate(90)"/>
</clipPath>
</defs>
</svg>
