<svg width="10" height="11" viewBox="0 0 10 11" fill="none" xmlns="http://www.w3.org/2000/svg">
<g clip-path="url(#clip0_13_353)">
<path d="M3.30799 9.97326C3.19082 9.85605 3.125 9.69711 3.125 9.53138C3.125 9.36566 3.19082 9.20671 3.30799 9.08951L6.40174 5.99576L3.30799 2.90201C3.19414 2.78413 3.13115 2.62626 3.13257 2.46238C3.13399 2.29851 3.19972 2.14175 3.3156 2.02587C3.43148 1.90999 3.58824 1.84426 3.75212 1.84284C3.91599 1.84141 4.07386 1.90441 4.19174 2.01826L7.72737 5.55388C7.84454 5.67109 7.91036 5.83003 7.91036 5.99576C7.91036 6.16149 7.84454 6.32043 7.72737 6.43763L4.19174 9.97326C4.07454 10.0904 3.91559 10.1562 3.74987 10.1562C3.58414 10.1562 3.4252 10.0904 3.30799 9.97326Z" fill="#575962"/>
</g>
<defs>
<clipPath id="clip0_13_353">
<rect width="10" height="10" fill="white" transform="translate(0 10.9961) rotate(-90)"/>
</clipPath>
</defs>
</svg>
