<svg width="22" height="22" viewBox="0 0 22 22" fill="none" xmlns="http://www.w3.org/2000/svg">
<g clip-path="url(#clip0_746_4039)">
<path d="M7.33398 16.5009L9.16732 14.6676H11.0007L12.2473 13.4209C13.5216 13.8649 14.9089 13.8631 16.1821 13.4159C17.4553 12.9687 18.539 12.1026 19.2558 10.9593C19.9726 9.81598 20.2801 8.4632 20.1279 7.12237C19.9757 5.78153 19.3729 4.53207 18.4181 3.57847C17.4633 2.62486 16.2131 2.02361 14.8721 1.87312C13.5311 1.72262 12.1787 2.0318 11.0363 2.75004C9.89383 3.46828 9.02906 4.55305 8.58346 5.82679C8.13787 7.10054 8.13785 8.48783 8.5834 9.76159L1.83398 16.5009V20.1676H5.50065L7.33398 18.3343V16.5009Z" stroke="#F77712" stroke-width="1.83333" stroke-linecap="round" stroke-linejoin="round"/>
<path d="M15.5846 7.33333C16.0909 7.33333 16.5013 6.92293 16.5013 6.41667C16.5013 5.91041 16.0909 5.5 15.5846 5.5C15.0784 5.5 14.668 5.91041 14.668 6.41667C14.668 6.92293 15.0784 7.33333 15.5846 7.33333Z" stroke="#F77712" stroke-width="1.83333" stroke-linecap="round" stroke-linejoin="round"/>
</g>
<defs>
<clipPath id="clip0_746_4039">
<rect width="22" height="22" fill="white"/>
</clipPath>
</defs>
</svg>
