<svg width="22" height="22" viewBox="0 0 22 22" fill="none" xmlns="http://www.w3.org/2000/svg">
<path d="M2.29102 8.70801H19.7077V18.333C19.7077 18.5761 19.6111 18.8093 19.4392 18.9812C19.2673 19.1531 19.0341 19.2497 18.791 19.2497H3.20768C2.96457 19.2497 2.73141 19.1531 2.5595 18.9812C2.38759 18.8093 2.29102 18.5761 2.29102 18.333V8.70801ZM2.29102 4.12467C2.29102 3.88156 2.38759 3.6484 2.5595 3.47649C2.73141 3.30458 2.96457 3.20801 3.20768 3.20801H18.791C19.0341 3.20801 19.2673 3.30458 19.4392 3.47649C19.6111 3.6484 19.7077 3.88156 19.7077 4.12467V8.70801H2.29102V4.12467Z" stroke="#575962" stroke-width="1.83333" stroke-linejoin="round"/>
<path d="M7.33268 1.83301V5.49967M14.666 1.83301V5.49967M12.8327 15.583H15.5827M6.41602 15.583H9.16602M12.8327 11.9163H15.5827M6.41602 11.9163H9.16602" stroke="#575962" stroke-width="1.83333" stroke-linecap="round" stroke-linejoin="round"/>
</svg>
