<svg width="80" height="80" viewBox="0 0 80 80" fill="none" xmlns="http://www.w3.org/2000/svg">
<path d="M53.5469 27.7188C53.5469 27.375 53.2656 27.0938 52.9219 27.0938L47.7656 27.1172L40 36.375L32.2422 27.125L27.0781 27.1016C26.7344 27.1016 26.4531 27.375 26.4531 27.7266C26.4531 27.875 26.5078 28.0156 26.6016 28.1328L36.7656 40.2422L26.6016 52.3438C26.5072 52.4583 26.4548 52.6016 26.4531 52.75C26.4531 53.0938 26.7344 53.375 27.0781 53.375L32.2422 53.3516L40 44.0938L47.7578 53.3438L52.9141 53.3672C53.2578 53.3672 53.5391 53.0938 53.5391 52.7422C53.5391 52.5938 53.4844 52.4531 53.3906 52.3359L43.2422 40.2344L53.4062 28.125C53.5 28.0156 53.5469 27.8672 53.5469 27.7188Z" fill="#F64E60"/>
<path d="M40 5.07812C20.6719 5.07812 5 20.75 5 40.0781C5 59.4062 20.6719 75.0781 40 75.0781C59.3281 75.0781 75 59.4062 75 40.0781C75 20.75 59.3281 5.07812 40 5.07812ZM40 69.1406C23.9531 69.1406 10.9375 56.125 10.9375 40.0781C10.9375 24.0312 23.9531 11.0156 40 11.0156C56.0469 11.0156 69.0625 24.0312 69.0625 40.0781C69.0625 56.125 56.0469 69.1406 40 69.1406Z" fill="#F64E60"/>
</svg>
