<svg width="80" height="80" viewBox="0 0 80 80" fill="none" xmlns="http://www.w3.org/2000/svg">
<path d="M40 5C20.6719 5 5 20.6719 5 40C5 59.3281 20.6719 75 40 75C59.3281 75 75 59.3281 75 40C75 20.6719 59.3281 5 40 5ZM40 69.0625C23.9531 69.0625 10.9375 56.0469 10.9375 40C10.9375 23.9531 23.9531 10.9375 40 10.9375C56.0469 10.9375 69.0625 23.9531 69.0625 40C69.0625 56.0469 56.0469 69.0625 40 69.0625Z" fill="#FFA800"/>
<path d="M36.25 53.75C36.25 52.7554 36.6451 51.8016 37.3483 51.0983C38.0516 50.3951 39.0054 50 40 50C40.9946 50 41.9484 50.3951 42.6516 51.0983C43.3549 51.8016 43.75 52.7554 43.75 53.75C43.75 54.7446 43.3549 55.6984 42.6516 56.4017C41.9484 57.1049 40.9946 57.5 40 57.5C39.0054 57.5 38.0516 57.1049 37.3483 56.4017C36.6451 55.6984 36.25 54.7446 36.25 53.75ZM41.875 45H38.125C37.7812 45 37.5 44.7188 37.5 44.375V23.125C37.5 22.7812 37.7812 22.5 38.125 22.5H41.875C42.2188 22.5 42.5 22.7812 42.5 23.125V44.375C42.5 44.7188 42.2188 45 41.875 45Z" fill="#FFA800"/>
</svg>
