<svg width="22" height="22" viewBox="0 0 22 22" fill="none" xmlns="http://www.w3.org/2000/svg">
<path d="M17.416 10.0837H11.916V4.58366C11.916 4.34054 11.8194 4.10739 11.6475 3.93548C11.4756 3.76357 11.2425 3.66699 10.9993 3.66699C10.7562 3.66699 10.5231 3.76357 10.3512 3.93548C10.1793 4.10739 10.0827 4.34054 10.0827 4.58366V10.0837H4.58268C4.33957 10.0837 4.10641 10.1802 3.9345 10.3521C3.76259 10.5241 3.66602 10.7572 3.66602 11.0003C3.66602 11.2434 3.76259 11.4766 3.9345 11.6485C4.10641 11.8204 4.33957 11.917 4.58268 11.917H10.0827V17.417C10.0827 17.6601 10.1793 17.8933 10.3512 18.0652C10.5231 18.2371 10.7562 18.3337 10.9993 18.3337C11.2425 18.3337 11.4756 18.2371 11.6475 18.0652C11.8194 17.8933 11.916 17.6601 11.916 17.417V11.917H17.416C17.6591 11.917 17.8923 11.8204 18.0642 11.6485C18.2361 11.4766 18.3327 11.2434 18.3327 11.0003C18.3327 10.7572 18.2361 10.5241 18.0642 10.3521C17.8923 10.1802 17.6591 10.0837 17.416 10.0837Z" fill="#349EFF"/>
</svg>
