<svg width="8" height="10" viewBox="0 0 8 10" fill="none" xmlns="http://www.w3.org/2000/svg">
<g clip-path="url(#clip0_839_4556)">
<path d="M7.27663 6.36364C7.27663 6.48674 7.23165 6.59328 7.14169 6.68324L3.95987 9.86506C3.86991 9.95502 3.76338 10 3.64027 10C3.51716 10 3.41063 9.95502 3.32067 9.86506L0.138849 6.68324C0.0488873 6.59328 0.00390625 6.48674 0.00390625 6.36364C0.00390625 6.24053 0.0488873 6.134 0.138849 6.04403C0.228812 5.95407 0.335346 5.90909 0.458452 5.90909H6.82209C6.94519 5.90909 7.05173 5.95407 7.14169 6.04403C7.23165 6.134 7.27663 6.24053 7.27663 6.36364ZM7.27663 3.63636C7.27663 3.75947 7.23165 3.866 7.14169 3.95597C7.05173 4.04593 6.94519 4.09091 6.82209 4.09091H0.458452C0.335346 4.09091 0.228812 4.04593 0.138849 3.95597C0.0488873 3.866 0.00390625 3.75947 0.00390625 3.63636C0.00390625 3.51326 0.0488873 3.40672 0.138849 3.31676L3.32067 0.134943C3.41063 0.0449811 3.51716 0 3.64027 0C3.76338 0 3.86991 0.0449811 3.95987 0.134943L7.14169 3.31676C7.23165 3.40672 7.27663 3.51326 7.27663 3.63636Z" fill="#C2C2C2"/>
</g>
<defs>
<clipPath id="clip0_839_4556">
<rect width="7.28" height="10" fill="white"/>
</clipPath>
</defs>
</svg>
