<svg width="22" height="22" viewBox="0 0 22 22" fill="none" xmlns="http://www.w3.org/2000/svg">
<path d="M18.3327 10.0827C18.1085 8.46952 17.3602 6.97485 16.2029 5.82886C15.0457 4.68288 13.5438 3.94917 11.9285 3.74075C10.3133 3.53233 8.67434 3.86077 7.26412 4.67547C5.8539 5.49017 4.75066 6.74593 4.12435 8.24932M3.66602 4.58266V8.24932H7.33268M3.66602 11.916C3.89019 13.5291 4.63854 15.0238 5.79576 16.1698C6.95299 17.3158 8.45491 18.0495 10.0702 18.2579C11.6854 18.4663 13.3244 18.1379 14.7346 17.3232C16.1448 16.5085 17.248 15.2527 17.8743 13.7493M18.3327 17.416V13.7493H14.666" stroke="white" stroke-width="1.83333" stroke-linecap="round" stroke-linejoin="round"/>
</svg>
