<svg width="22" height="22" viewBox="0 0 22 22" fill="none" xmlns="http://www.w3.org/2000/svg">
<path d="M4.58333 18.334C4.58333 18.8202 4.77649 19.2865 5.1203 19.6303C5.46412 19.9742 5.93044 20.1673 6.41667 20.1673H15.5833C16.0696 20.1673 16.5359 19.9742 16.8797 19.6303C17.2235 19.2865 17.4167 18.8202 17.4167 18.334V7.33398H19.25V5.50065H15.5833V3.66732C15.5833 3.18109 15.3902 2.71477 15.0464 2.37096C14.7025 2.02714 14.2362 1.83398 13.75 1.83398H8.25C7.76377 1.83398 7.29745 2.02714 6.95364 2.37096C6.60982 2.71477 6.41667 3.18109 6.41667 3.66732V5.50065H2.75V7.33398H4.58333V18.334ZM8.25 3.66732H13.75V5.50065H8.25V3.66732ZM7.33333 7.33398H15.5833V18.334H6.41667V7.33398H7.33333Z" fill="white"/>
<path d="M8.25 9.16602H10.0833V16.4993H8.25V9.16602ZM11.9167 9.16602H13.75V16.4993H11.9167V9.16602Z" fill="white"/>
</svg>
