<svg width="24" height="24" viewBox="0 0 24 24" fill="none" xmlns="http://www.w3.org/2000/svg">
<path d="M10.5 15H6C4.93913 15 3.92172 15.4214 3.17157 16.1716C2.42143 16.9217 2 17.9391 2 19V21" stroke="white" stroke-width="2" stroke-linecap="round" stroke-linejoin="round"/>
<path d="M9 11C11.2091 11 13 9.20914 13 7C13 4.79086 11.2091 3 9 3C6.79086 3 5 4.79086 5 7C5 9.20914 6.79086 11 9 11Z" stroke="white" stroke-width="2" stroke-linecap="round" stroke-linejoin="round"/>
<g clip-path="url(#clip0_661_3058)">
<path d="M22.1863 15.2539C22.2488 15.4238 22.1961 15.6133 22.0613 15.7344L21.2156 16.5039C21.2371 16.666 21.2488 16.832 21.2488 17C21.2488 17.168 21.2371 17.334 21.2156 17.4961L22.0613 18.2656C22.1961 18.3867 22.2488 18.5762 22.1863 18.7461C22.1003 18.9785 21.9968 19.2012 21.8777 19.416L21.7859 19.5742C21.657 19.7891 21.5125 19.9922 21.3543 20.1836C21.239 20.3242 21.0476 20.3711 20.8757 20.3164L19.7878 19.9707C19.5261 20.1719 19.2371 20.3398 18.9285 20.4668L18.6843 21.582C18.6453 21.7598 18.5086 21.9004 18.3289 21.9297C18.0593 21.9746 17.782 21.998 17.4988 21.998C17.2156 21.998 16.9382 21.9746 16.6687 21.9297C16.489 21.9004 16.3523 21.7598 16.3132 21.582L16.0691 20.4668C15.7605 20.3398 15.4714 20.1719 15.2097 19.9707L14.1238 20.3184C13.9519 20.373 13.7605 20.3242 13.6453 20.1855C13.4871 19.9941 13.3425 19.791 13.2136 19.5762L13.1218 19.418C13.0027 19.2031 12.8992 18.9805 12.8132 18.748C12.7507 18.5781 12.8035 18.3887 12.9382 18.2676L13.7839 17.498C13.7625 17.334 13.7507 17.168 13.7507 17C13.7507 16.832 13.7625 16.666 13.7839 16.5039L12.9382 15.7344C12.8035 15.6133 12.7507 15.4238 12.8132 15.2539C12.8992 15.0215 13.0027 14.7988 13.1218 14.584L13.2136 14.4258C13.3425 14.2109 13.4871 14.0078 13.6453 13.8164C13.7605 13.6758 13.9519 13.6289 14.1238 13.6836L15.2117 14.0293C15.4734 13.8281 15.7625 13.6602 16.071 13.5332L16.3152 12.418C16.3543 12.2402 16.491 12.0996 16.6707 12.0703C16.9402 12.0234 17.2175 12 17.5007 12C17.7839 12 18.0613 12.0234 18.3308 12.0684C18.5105 12.0977 18.6472 12.2383 18.6863 12.416L18.9304 13.5313C19.239 13.6582 19.5281 13.8262 19.7898 14.0273L20.8777 13.6816C21.0496 13.627 21.241 13.6758 21.3562 13.8145C21.5144 14.0059 21.6589 14.209 21.7878 14.4238L21.8796 14.582C21.9988 14.7969 22.1023 15.0195 22.1882 15.252L22.1863 15.2539ZM17.5007 18.5625C18.364 18.5625 19.0632 17.8633 19.0632 17C19.0632 16.1367 18.364 15.4375 17.5007 15.4375C16.6375 15.4375 15.9382 16.1367 15.9382 17C15.9382 17.8633 16.6375 18.5625 17.5007 18.5625Z" fill="white"/>
</g>
<defs>
<clipPath id="clip0_661_3058">
<rect width="10" height="10" fill="white" transform="translate(12.5 12)"/>
</clipPath>
</defs>
</svg>
