<svg width="16" height="16" viewBox="0 0 16 16" fill="none" xmlns="http://www.w3.org/2000/svg">
<path d="M14.416 7.08366H8.91602V1.58366C8.91602 1.34054 8.81944 1.10739 8.64753 0.935478C8.47562 0.763569 8.24246 0.666992 7.99935 0.666992C7.75623 0.666992 7.52308 0.763569 7.35117 0.935478C7.17926 1.10739 7.08268 1.34054 7.08268 1.58366V7.08366H1.58268C1.33957 7.08366 1.10641 7.18024 0.934501 7.35214C0.762593 7.52405 0.666016 7.75721 0.666016 8.00033C0.666016 8.24344 0.762593 8.4766 0.934501 8.64851C1.10641 8.82042 1.33957 8.91699 1.58268 8.91699H7.08268V14.417C7.08268 14.6601 7.17926 14.8933 7.35117 15.0652C7.52308 15.2371 7.75623 15.3337 7.99935 15.3337C8.24246 15.3337 8.47562 15.2371 8.64753 15.0652C8.81944 14.8933 8.91602 14.6601 8.91602 14.417V8.91699H14.416C14.6591 8.91699 14.8923 8.82042 15.0642 8.64851C15.2361 8.4766 15.3327 8.24344 15.3327 8.00033C15.3327 7.75721 15.2361 7.52405 15.0642 7.35214C14.8923 7.18024 14.6591 7.08366 14.416 7.08366Z" fill="#349EFF"/>
</svg>
